<svg xmlns="http://www.w3.org/2000/svg" viewBox="0 0 275 275"><defs><style>.cls-1{fill:none}.cls-9{fill:#fff}.cls-6{fill:#6c3189}.cls-7{fill:#2f2f2f}.cls-8{fill:#f4737f}</style></defs><g id="ending-ride" transform="translate(-1144 -2498)"><path id="Rectangle_384" data-name="Rectangle 384" class="cls-1" transform="translate(1144 2498)" d="M0 0h275v275H0z"/><circle id="Ellipse_66" data-name="Ellipse 66" cx="108" cy="108" r="108" transform="translate(1174 2528)" fill="#fbfbfb"/><path id="Rectangle_376" data-name="Rectangle 376" class="cls-1" transform="translate(1144 2498)" d="M0 0h275v275H0z"/><g id="Group_1561" data-name="Group 1561" transform="translate(1211 2505.7)"><path id="Path_2299" data-name="Path 2299" d="M133.472 295.043H7.448A7.439 7.439 0 0 1 0 287.61V52.533A7.439 7.439 0 0 1 7.448 45.1h126.024a7.439 7.439 0 0 1 7.448 7.433v235.1a7.464 7.464 0 0 1-7.448 7.41z" transform="translate(0 -34.743)" fill="#ccdbff"/><path id="Path_2300" data-name="Path 2300" d="M133.472 249.943H7.448A7.439 7.439 0 0 1 0 242.51V7.433A7.439 7.439 0 0 1 7.448 0h126.024a7.439 7.439 0 0 1 7.448 7.433v235.1a7.464 7.464 0 0 1-7.448 7.41z" stroke="#c2c2c2" stroke-width=".2" fill="#fff"/><path id="Rectangle_385" data-name="Rectangle 385" transform="translate(7.441 21.519)" fill="#9354ba" d="M0 0h126.038v206.905H0z"/><g id="Group_1558" data-name="Group 1558" transform="translate(39.434 88.253)"><ellipse id="Ellipse_214" data-name="Ellipse 214" class="cls-6" cx="30.246" cy="2.067" rx="30.246" ry="2.067" transform="translate(.207 57.46)"/><g id="Group_1557" data-name="Group 1557"><circle id="Ellipse_215" data-name="Ellipse 215" class="cls-7" cx="8.911" cy="8.911" r="8.911" transform="translate(0 41.269)"/><circle id="Ellipse_216" data-name="Ellipse 216" class="cls-7" cx="8.911" cy="8.911" r="8.911" transform="translate(44.209 41.269)"/><g id="Group_1556" data-name="Group 1556" transform="translate(6.568 47.883)"><circle id="Ellipse_217" data-name="Ellipse 217" class="cls-8" cx="2.32" cy="2.32" r="2.32"/><circle id="Ellipse_218" data-name="Ellipse 218" class="cls-8" cx="2.32" cy="2.32" r="2.32" transform="translate(44.071)"/></g><path id="Path_2301" data-name="Path 2301" class="cls-7" d="M278.683 427.4l-3.606.413-.781-3.077-12.08 12.172H241.8l.322-4.18h18.188l12.746-12.815-2.182-8.52-3.307-12.884-2.5-9.783h-3.927a1.975 1.975 0 0 1-1.975-1.975 1.942 1.942 0 0 1 .574-1.378 2 2 0 0 1 1.4-.574h7.372l3.284 13.733 3.077 12.884z" transform="translate(-225.632 -384.8)"/><path id="Path_2302" data-name="Path 2302" class="cls-9" d="M361.38 457.384h-4L354.1 444.5h4.2z" transform="translate(-312.142 -430.79)"/></g></g><circle id="Ellipse_219" data-name="Ellipse 219" class="cls-6" cx="22.437" cy="22.437" r="22.437" transform="translate(48.023 167.762)"/><g id="Group_1560" data-name="Group 1560" transform="translate(56.888 45.031)"><path id="Path_2306" data-name="Path 2306" class="cls-9" d="M257.436 216.647l-10.036-9.232 2.021-2.2 7.9 7.3 15.984-16.215 2.113 2.113z" transform="translate(-247.4 -196.3)"/></g></g></g></svg>